<?xml version="1.0" encoding="UTF-8"?>
<svg id="Livello_1" xmlns="http://www.w3.org/2000/svg" version="1.1" viewBox="0 0 1080 1080">
  <!-- Generator: Adobe Illustrator 30.0.0, SVG Export Plug-In . SVG Version: 2.1.1 Build 123)  -->
  <defs>
    <style>
      .st0 {
        fill: #f7f6f3;
      }
    </style>
  </defs>
  <path class="st0" d="M448.8,375.67l223.98,85.67c4.21,1.61,6.98,5.64,6.98,10.15v166.73c0,7.61-7.63,12.87-14.74,10.15l-216.22-82.7c-3.55-1.36-7.55-.76-10.55,1.57l-165.18,128.47c-7.14,5.55-17.53.46-17.53-8.57v-162.46c0-3.35,1.55-6.52,4.19-8.57l178.52-138.85c3-2.33,7-2.93,10.55-1.57Z"/>
  <path class="st0" d="M448.8,621.6l368.67,141.01c4.21,1.61,6.98,5.64,6.98,10.15v166.73c0,7.61-7.63,12.87-14.74,10.15l-360.91-138.04c-3.55-1.36-7.55-.76-10.55,1.57l-165.18,128.47c-7.14,5.55-17.53.46-17.53-8.57v-162.46c0-3.35,1.55-6.52,4.19-8.57l178.52-138.85c3-2.33,7-2.93,10.55-1.57Z"/>
  <path class="st0" d="M453.77,130.98l363.7,139.11c4.21,1.61,6.98,5.64,6.98,10.15v166.73c0,7.61-7.63,12.87-14.74,10.15l-360.91-138.04c-3.55-1.36-7.55-.76-10.55,1.57l-165.18,128.47c-7.14,5.55-17.53.46-17.53-8.57v-162.46c0-3.35,1.55-6.52,4.19-8.57l174.32-135.58c5.61-4.36,13.09-5.47,19.72-2.94Z"/>
</svg>