<?xml version="1.0" encoding="UTF-8"?>
<svg id="Livello_1" xmlns="http://www.w3.org/2000/svg" version="1.1" viewBox="0 0 1080 1080">
  <!-- Generator: Adobe Illustrator 30.0.0, SVG Export Plug-In . SVG Version: 2.1.1 Build 123)  -->
  <defs>
    <style>
      .st0 {
        fill: #e5dccb;
      }
    </style>
  </defs>
  <path class="st0" d="M448.86,375.77l223.84,85.61c4.2,1.61,6.98,5.64,6.98,10.14v166.62c0,7.61-7.63,12.86-14.73,10.14l-216.08-82.65c-3.55-1.36-7.55-.76-10.54,1.57l-165.08,128.39c-7.13,5.55-17.52.46-17.52-8.57v-162.36c0-3.35,1.55-6.51,4.19-8.57l178.41-138.76c3-2.33,7-2.93,10.54-1.57Z"/>
  <path class="st0" d="M448.86,621.55l368.43,140.92c4.2,1.61,6.98,5.64,6.98,10.14v166.62c0,7.61-7.63,12.86-14.73,10.14l-360.68-137.95c-3.55-1.36-7.55-.76-10.54,1.57l-165.08,128.39c-7.13,5.55-17.52.46-17.52-8.57v-162.36c0-3.35,1.55-6.51,4.19-8.57l178.41-138.76c3-2.33,7-2.93,10.54-1.57Z"/>
  <path class="st0" d="M453.83,131.25l363.47,139.02c4.2,1.61,6.98,5.64,6.98,10.14v166.62c0,7.61-7.63,12.86-14.73,10.14l-360.68-137.95c-3.55-1.36-7.55-.76-10.54,1.57l-165.08,128.39c-7.13,5.55-17.52.46-17.52-8.57v-162.36c0-3.35,1.55-6.51,4.19-8.57l174.21-135.49c5.6-4.36,13.08-5.47,19.71-2.94Z"/>
</svg>