<?xml version="1.0" encoding="UTF-8"?>
<svg id="Livello_1" xmlns="http://www.w3.org/2000/svg" version="1.1" viewBox="0 0 1080 1080">
  <!-- Generator: Adobe Illustrator 30.0.0, SVG Export Plug-In . SVG Version: 2.1.1 Build 123)  -->
  <defs>
    <style>
      .st0 {
        opacity: .2;
      }

      .st1 {
        fill: #e5dccb;
      }
    </style>
  </defs>
  <g class="st0">
    <g>
      <path class="st1" d="M718.53,686.07v104.64c0,4.79-4.79,8.07-9.26,6.37l-226.5-86.64c-2.23-.84-4.73-.46-6.62.99l-103.65,80.63c-4.5,3.49-11.01.29-11.01-5.38v-101.95c0-2.1.97-4.1,2.63-5.38l112.03-87.14c1.89-1.47,4.39-1.85,6.62-.99l231.38,88.48c2.65,1.01,4.39,3.55,4.39,6.37Z"/>
      <path class="st1" d="M718.53,376.98v104.64c0,4.77-4.79,8.07-9.26,6.37l-226.5-86.64c-2.23-.86-4.73-.48-6.62.99l-103.65,80.63c-4.5,3.49-11.01.29-11.01-5.38v-101.97c0-2.1.97-4.08,2.63-5.38l109.41-85.08c3.51-2.73,8.21-3.45,12.37-1.85l228.25,87.31c2.65,1.01,4.39,3.53,4.39,6.37Z"/>
      <path class="st1" d="M627.72,497v104.64c0,4.77-4.79,8.07-9.24,6.37l-135.71-51.91c-2.23-.84-4.73-.46-6.62.99l-103.65,80.63c-4.5,3.49-11.01.29-11.01-5.38v-101.95c0-2.1.97-4.1,2.63-5.38l112.03-87.14c1.89-1.47,4.39-1.85,6.62-.99l140.56,53.76c2.65,1.01,4.39,3.55,4.39,6.37Z"/>
    </g>
  </g>
  <g>
    <g>
      <path class="st1" d="M284.14,555.62v63.59h20.33c15.09,0,63.53-1.75,63.53-24.62h1.59v26.2h-113.71v-1.59c13.66,0,14.61-11.28,14.61-42.56v-19.82c-.62-27.03,17.06-23.54,16.99-19-4.06,2.78-3.3,16.3-3.33,17.8ZM259.86,534.17c4.56-6.18,16.34-10.46,26-10.46,20.79,0,32.35,10.7,50.83,10.7,7.98,0,15.55-3.49,15.55-9.05h2.1c0,9.37-10.31,18.18-26.89,17.47-17.6-.75-36.34-13.66-51.26-13.98-6.09-.16-11.34,1.93-14.7,5.26l-1.63.06ZM270.48,506.14c0-31.29-.95-42.56-14.61-42.56v-1.59h113.71v21.44h-1.59v-.64c0-10.64-20.96-19.22-57.49-19.22h-26.36v37.68c.18,2.55-.37,12.32,4.56,14.15-.44,5.31-17.75,6.73-18.22-9.27Z"/>
      <path class="st1" d="M379.11,619.21c13.66,0,14.61-11.28,14.61-42.56v-70.51c0-31.29-.95-42.56-14.61-42.56v-1.59h28.27v114.66c0,31.29.95,42.56,14.61,42.56v1.59h-42.88v-1.59Z"/>
      <path class="st1" d="M449.1,564.41c-.28,28.44,18.24,51,47.47,51,12.55,0,33.51-6.83,41.29-27.32l2.22.95c-8.26,18.9-25.57,31.76-49.23,31.76-34.15,0-53.71-22.04-53.71-54.76-.04-16.52,14.94-12.17,14.87-8,0,0-3-.38-2.91,6.36ZM439.13,526.95c.9-10.02,13.33-24.95,44.72-24.95,34.15,0,54.45,20.17,54.29,36.21-.16,17.95-8.6,27.4-27.03,28.71-25.74,1.84-55.1-16.36-70.67-16.59-10.21-.15-13.49,8.64-13.97,9.91h-1.58c0-6.51,3.55-20.22,15.86-20.97,16.64-1.01,57.58,25.29,70.29,25.29,23.5,0,19.22-60.66-26.2-60.66-29.1,0-35.48,20.53-35.87,23.04-.24,1.56-1.27,6.84,1.52,8.84-.68,2.42-12.84,4.22-11.38-8.84Z"/>
      <path class="st1" d="M540,502.01h19.53c7.15,0,11.43,9.34,13.34,15.53,8.42,27.32,13.66,45.58,23.5,76.39,2.86,8.89,6.99,13.18,11.59,13.82,8.1-25.41,14.93-46.69,20.8-66.86,3.65-12.71,6.99-37.29-10.8-37.29h-3.49v-1.59h41.77v1.59h-2.7c-10.96,0-18.74,24.1-21.76,33.79-7.78,24.93-15.56,50.66-25.89,83.06-.02.66-14.3,3.1-23.82-26.52-8.43-26.2-13.34-43.36-20.01-64.8-3.02-9.69-6.83-25.53-18.26-25.53h-3.81v-1.59Z"/>
      <path class="st1" d="M661.02,620.8v-1.59c13.66,0,14.61-11.28,14.61-42.56v-24.14c0-31.29-.95-48.92-14.61-48.92v-1.59h28.27v74.64c0,31.29.95,42.56,14.61,42.56v1.59h-42.88Z"/>
      <path class="st1" d="M797.06,521.7c0-12.86-14.93-18.1-27.79-18.1-15.09,0-29.7,5.24-29.7,18.42,0,6.04,4.92,8.73,6.35,7.31,1.59,4.77-3.65,9.21-8.89,9.21-6.83,0-11.43-5.88-11.43-12.71,0-15.72,18.74-23.82,43.67-23.82,17.95,0,41.29,7.46,41.29,20.01,0,25.57-79.89,2.38-79.89,64.48,0,16.52,10.48,29.06,26.05,29.06,17.15,0,38.91-17.63,38.91-63.84,0-3.49-.32-7.15-2.7-7.78,0-.95,1.75-2.22,4.29-2.22,11.59,0,13.02,12.07,13.02,24.77,0,14.13.16,16.52.16,33.35,0,13.34,7.78,19.73,12.07,19.73l-.09,1.23h-11.28c-8.42,0-14.99-10.96-14.99-22.87v-27.16c-5.72,27.32-16.2,50.03-43.99,50.03-20.49,0-35.42-14.77-35.42-35.26,0-55.9,80.36-37.64,80.36-63.84Z"/>
    </g>
    <path class="st1" d="M682.47,478.84l-6.82,7.43v7.1c0,.67.64,1.21,1.43,1.21h10.78c.79,0,1.43-.54,1.43-1.21v-7.1l-6.82-7.43Z"/>
    <path class="st1" d="M201.78,662.13v10.85h-3.05v-10.85h3.05Z"/>
    <path class="st1" d="M237.09,672.99h-3.05l-12.27-8.64v8.64h-3.05v-10.85h3.07l12.25,8.61v-8.61h3.05v10.85Z"/>
    <path class="st1" d="M273.33,662.13l-8.82,10.85h-3.52l-8.82-10.85h3.25l7.34,9.36,7.34-9.36h3.22Z"/>
    <path class="st1" d="M291.47,663.29v3.63h8.51v1.17h-8.51v3.74h9.52v1.17h-12.57v-10.85h12.57v1.15h-9.52Z"/>
    <path class="st1" d="M320.62,672.61c-1.22-.25-2.17-.59-2.87-1.03-.69-.44-1.05-.95-1.07-1.53h3.25c.11.5.57.92,1.36,1.26.79.34,1.95.51,3.47.51s2.6-.17,3.44-.49c.84-.33,1.26-.75,1.26-1.27,0-.41-.25-.74-.74-.99-.49-.25-1.11-.45-1.84-.58-.74-.13-1.73-.27-2.98-.43-1.54-.18-2.78-.36-3.71-.55-.93-.18-1.72-.47-2.38-.86-.66-.39-.99-.92-.99-1.58,0-.58.32-1.09.97-1.54s1.56-.79,2.73-1.03,2.52-.37,4.04-.37c2.19,0,3.98.25,5.38.75,1.4.5,2.19,1.16,2.36,1.98h-3.35c-.11-.41-.58-.76-1.41-1.07-.83-.31-1.92-.46-3.29-.46-1.27,0-2.31.15-3.12.45-.8.3-1.21.72-1.21,1.26,0,.39.24.7.72.94.48.24,1.07.43,1.78.56.7.13,1.69.27,2.97.43,1.54.19,2.78.38,3.72.57s1.74.48,2.41.87c.67.39,1.01.92,1.01,1.59,0,.52-.3,1-.91,1.46-.6.46-1.5.83-2.68,1.11-1.19.28-2.58.43-4.19.43s-2.92-.12-4.14-.37Z"/>
    <path class="st1" d="M363.15,662.13v1.15h-6.37v9.7h-3.05v-9.7h-6.4v-1.15h15.83Z"/>
    <path class="st1" d="M381.7,662.13v10.85h-3.05v-10.85h3.05Z"/>
    <path class="st1" d="M422.33,662.13v10.85h-3.05v-8.03l-7.71,8.03h-2.15l-7.74-8.05v8.05h-3.05v-10.85h3.21l8.66,8.98,8.66-8.98h3.18Z"/>
    <path class="st1" d="M442.28,663.29v3.63h8.51v1.17h-8.51v3.74h9.52v1.17h-12.57v-10.85h12.57v1.15h-9.52Z"/>
    <path class="st1" d="M486.54,672.99h-3.05l-12.27-8.64v8.64h-3.05v-10.85h3.07l12.25,8.61v-8.61h3.05v10.85Z"/>
    <path class="st1" d="M517.85,662.13v1.15h-6.37v9.7h-3.05v-9.7h-6.4v-1.15h15.83Z"/>
    <path class="st1" d="M536.4,662.13v10.85h-3.05v-10.85h3.05Z"/>
    <path class="st1" d="M577.07,662.13v10.85h-3.05v-10.85h3.05Z"/>
    <path class="st1" d="M617.7,662.13v10.85h-3.05v-8.03l-7.71,8.03h-2.15l-7.74-8.05v8.05h-3.05v-10.85h3.21l8.66,8.98,8.66-8.98h3.18Z"/>
    <path class="st1" d="M658.31,662.13v10.85h-3.05v-8.03l-7.71,8.03h-2.15l-7.74-8.05v8.05h-3.05v-10.85h3.21l8.66,8.98,8.66-8.98h3.18Z"/>
    <path class="st1" d="M679.86,672.39c-1.79-.47-3.2-1.13-4.24-1.98s-1.56-1.8-1.56-2.86.52-2.01,1.56-2.86,2.45-1.51,4.24-1.98c1.79-.47,3.77-.58,5.94-.58s4.18.11,5.97.58c1.79.47,3.2,1.13,4.23,1.97,1.03.84,1.54,1.8,1.54,2.86s-.52,2.02-1.54,2.86c-1.03.84-2.44,1.5-4.23,1.97-1.79.47-3.78.6-5.97.6s-4.15-.13-5.94-.6ZM690.21,671.34c1.31-.35,2.34-.86,3.08-1.51.75-.65,1.12-1.41,1.12-2.27s-.37-1.63-1.12-2.28c-.75-.65-1.77-1.15-3.07-1.5s-2.77-.53-4.43-.53-3.13.18-4.43.53c-1.3.35-2.32.85-3.07,1.5-.75.65-1.12,1.41-1.12,2.28s.37,1.62,1.12,2.27c.75.65,1.78,1.16,3.08,1.51s2.78.53,4.41.53,3.1-.18,4.41-.53Z"/>
    <path class="st1" d="M727.32,667.88c.7.26,1.26.58,1.68.97s.62.79.62,1.23c0,.55-.3,1.05-.9,1.49s-1.48.79-2.63,1.04c-1.15.25-2.51.38-4.07.38h-8.72v-10.85h8.38c1.59,0,2.94.12,4.06.37,1.12.24,1.96.57,2.51.99.56.42.84.88.84,1.4,0,.64-.37,1.18-1.12,1.6s-1.74.72-2.97.91c.85.06,1.63.22,2.33.48ZM716.34,666.82h5.13c1.43,0,2.54-.16,3.32-.47.78-.31,1.17-.74,1.17-1.29s-.39-.98-1.17-1.29c-.78-.31-1.91-.47-3.39-.47h-5.06v3.52ZM725.29,671.32c.85-.33,1.28-.79,1.28-1.39s-.45-1.08-1.34-1.43c-.89-.35-2.09-.52-3.59-.52h-5.3v3.83h5.4c1.52,0,2.7-.17,3.55-.5Z"/>
    <path class="st1" d="M748.63,662.13v10.85h-3.05v-10.85h3.05Z"/>
    <path class="st1" d="M768.61,671.83h8.18v1.15h-11.23v-10.85h3.05v9.7Z"/>
    <path class="st1" d="M794.83,662.13v10.85h-3.05v-10.85h3.05Z"/>
    <path class="st1" d="M825.58,670.57h-10.19l-1.88,2.41h-3.22l8.5-10.85h3.42l8.46,10.85h-3.22l-1.88-2.41ZM824.71,669.42l-4.22-5.48-4.23,5.48h8.45Z"/>
    <path class="st1" d="M858.4,672.99l-5.56-4.44h-3.69v4.44h-3.05v-10.85h7.54c1.76,0,3.26.14,4.48.42,1.22.28,2.13.66,2.73,1.14s.9,1.02.9,1.63c0,.75-.46,1.41-1.39,1.98-.93.57-2.32.95-4.18,1.14l5.87,4.55h-3.66ZM849.15,667.41h4.49c1.65,0,2.89-.19,3.72-.57.83-.38,1.24-.89,1.24-1.52s-.41-1.14-1.22-1.49c-.82-.35-2.06-.53-3.74-.53h-4.49v4.11Z"/>
    <path class="st1" d="M881.27,662.13v10.85h-3.05v-10.85h3.05Z"/>
  </g>
</svg>